<svg width="48" height="48" viewBox="0 0 56 50" fill="none" xmlns="http://www.w3.org/2000/svg">
  <path d="M44.5798 50.007C42.143 50.007 39.7007 49.6832 37.3191 49.0433C34.6003 48.3127 32.0379 47.1997 29.7038 45.7377C29.068 45.3396 28.459 44.9233 27.891 44.5007C26.0845 43.1587 24.4471 41.5963 23.0214 39.8561C22.5664 39.3024 22.1406 38.7408 21.7575 38.1903C21.2796 37.5149 20.8223 36.7977 20.395 36.0568C20.0609 35.4786 19.737 34.8672 19.4281 34.2329C21.2093 33.3814 23.0964 32.8182 25.0482 32.5544C25.1588 32.7621 25.2733 32.9659 25.3918 33.1705C25.564 33.4691 25.7441 33.7637 25.9281 34.0528C26.3215 34.6689 26.7639 35.2882 27.2417 35.8925C28.6762 37.7037 30.38 39.2693 32.3073 40.5465C32.9013 40.9391 33.5332 41.3143 34.1856 41.6618C35.6469 42.4328 37.2038 43.041 38.8144 43.4707C40.7007 43.9754 42.6367 44.2313 44.5695 44.2313C44.7923 44.2313 45.015 44.2282 45.2386 44.2195C45.9882 46.041 46.4455 47.9588 46.5996 49.9335C45.9282 49.9817 45.2512 50.007 44.5806 50.007H44.5798ZM10.6446 50.007C9.82072 50.007 8.98739 49.9707 8.16828 49.8956C7.48976 49.834 6.79308 49.744 6.09798 49.6287C3.99845 49.2779 1.93763 48.6824 -0.0339355 47.8553C0.21409 45.9091 0.671435 43.9904 1.32704 42.1437C3.27254 43.056 5.31519 43.6753 7.40682 43.9857C8.13115 44.0978 8.89102 44.1729 9.65959 44.2061C9.99687 44.2219 10.3357 44.2298 10.6746 44.2298C12.6011 44.2298 14.5316 43.9738 16.4108 43.4707C17.895 43.0742 19.3342 42.5252 20.6936 41.8396C21.9763 43.3964 23.4052 44.8206 24.9518 46.0836C22.7725 47.3767 20.4052 48.3712 17.9052 49.0433C15.5245 49.6832 13.0814 50.007 10.6454 50.007H10.6446ZM49.6343 49.5386C49.4526 47.4035 48.9653 45.323 48.1849 43.3475C47.9052 42.6366 47.5909 41.943 47.2496 41.2874C45.4913 37.8941 42.8784 35.0078 39.6793 32.9178C40.3839 31.0426 40.9037 29.0947 41.2267 27.1121C46.3176 29.9738 50.4511 34.432 52.9092 39.7258C53.1912 40.3269 53.4558 40.9588 53.7188 41.6587C54.4708 43.6555 54.9882 45.7392 55.2575 47.8546C53.4447 48.6136 51.5577 49.1792 49.6335 49.5386H49.6343ZM8.12641 40.9975C6.18565 40.7361 4.2994 40.1689 2.5103 39.3127C5.08455 34.0023 9.35311 29.5702 14.5735 26.7977C15.2267 26.4478 15.8902 26.1279 16.5482 25.8459C18.609 24.9478 20.782 24.3056 23.0103 23.9359C23.6793 23.8198 24.3563 23.7329 25.0838 23.6689C25.9116 23.5923 26.7607 23.5544 27.6106 23.5544C28.301 23.5544 28.9921 23.5797 29.6722 23.631C29.5198 25.5986 29.0624 27.5149 28.3105 29.3372C28.0766 29.3293 27.8436 29.3253 27.6098 29.3253C27.2662 29.3253 26.9226 29.3332 26.579 29.3506C25.8452 29.3814 25.0861 29.4565 24.3255 29.571C22.0419 29.913 19.8365 30.6089 17.7702 31.6437C17.1201 31.9651 16.4779 32.3253 15.8634 32.7147C12.6154 34.7566 9.94553 37.6168 8.12562 40.9983L8.12641 40.9975ZM33.7283 37.8103C32.109 36.6997 30.6793 35.3451 29.4692 33.7748C29.5932 33.5749 29.7141 33.3735 29.8326 33.1689C30.0056 32.8696 30.173 32.5647 30.3278 32.2606C30.6738 31.5955 30.9874 30.9027 31.2591 30.2037C32.1082 28.0552 32.609 25.7985 32.7488 23.4999C32.7915 22.7724 32.7986 22.0347 32.771 21.3087C32.6256 17.4683 31.4842 13.7266 29.4629 10.4636C30.658 8.91301 32.0909 7.55993 33.7323 6.43592C36.8926 11.0907 38.5608 16.5204 38.5608 22.1674C38.5608 22.4975 38.5537 22.8317 38.5427 23.1618C38.5135 23.9438 38.459 24.661 38.3768 25.3506C38.1193 27.586 37.5885 29.7866 36.7994 31.8925C36.5616 32.526 36.2962 33.1555 35.9898 33.8174C35.6533 34.5497 35.2741 35.2811 34.8286 36.0552C34.4898 36.6429 34.1193 37.2313 33.7275 37.8095L33.7283 37.8103ZM16.6477 22.5007C16.6185 19.9462 16.9416 17.3948 17.6082 14.9067C18.4645 11.7029 19.8539 8.72265 21.7386 6.04887C22.1604 5.45251 22.5751 4.90985 23.0048 4.39326C24.3499 2.75503 25.8973 1.26767 27.609 -0.0356445C29.1651 1.15156 30.5972 2.50622 31.8744 3.9999C30.1169 5.22028 28.5577 6.6792 27.2346 8.34271C26.756 8.94303 26.3128 9.56309 25.9195 10.1847C24.6999 12.082 23.7781 14.1737 23.1817 16.3972C22.7836 17.8941 22.5395 19.4138 22.4558 20.9241C20.4716 21.2582 18.5221 21.7866 16.6462 22.4999L16.6477 22.5007Z" fill="url(#paint0_linear_1_105)"/>
  <defs>
    <linearGradient id="paint0_linear_1_105" x1="8.63747" y1="56.5268" x2="46.579" y2="18.5844" gradientUnits="userSpaceOnUse">
      <stop stop-color="#F96164"/>
      <stop offset="1" stop-color="#FFBF18"/>
    </linearGradient>
  </defs>
</svg>
