<svg width="66" height="20" viewBox="0 0 66 20" fill="none" xmlns="http://www.w3.org/2000/svg">
  <path d="M15.443 15.247v-1.993a.3.3 0 0 0-.088-.21l-8.478-8.48a.3.3 0 0 0-.21-.086H4.673a.18.18 0 0 0-.179.178v1.851c0 .08.032.155.088.21l3.043 3.044c.07.07.07.183 0 .252l-3.079 3.079a.18.18 0 0 0-.052.126v2.029c0 .098.08.178.179.178h3.33c.098 0 .178-.08.178-.178v-1.195q0-.074.052-.127l1.651-1.651c.07-.07.183-.07.253 0l3.064 3.064a.3.3 0 0 0 .21.088h1.852c.098 0 .178-.08.178-.179" fill="#fff"/>
  <path d="M11 7.116h1.668c.099 0 .18.08.18.18v1.667c0 .16.193.24.306.127l2.288-2.29a.18.18 0 0 0 .052-.127V4.665a.18.18 0 0 0-.18-.18l-2.036-.002a.18.18 0 0 0-.127.052L10.873 6.81a.18.18 0 0 0 .127.306" fill="#EE7A30"/>
  <path d="m21.335 15 3.64-5.264-3.36-4.872h2.1l1.33 1.946c.378.56.756 1.12 1.106 1.68h.028c.35-.56.742-1.148 1.092-1.666l1.33-1.96h1.988l-3.346 4.872L30.883 15H28.77l-1.596-2.338c-.378-.56-.756-1.12-1.106-1.666h-.028c-.35.546-.714 1.106-1.092 1.652L23.351 15zm11.817 0-2.856-6.916h1.806l1.05 2.66c.294.756.56 1.484.826 2.212h.028c.28-.742.56-1.498.868-2.254l1.05-2.618h1.708L34.79 15zm11.178-.476c-.644.392-1.638.63-2.534.63-2.24 0-3.822-1.4-3.822-3.598 0-2.226 1.596-3.626 3.5-3.626 1.722 0 3.234 1.134 3.234 3.402 0 .224-.014.518-.042.686h-4.984c.196 1.148 1.106 1.722 2.296 1.722.84 0 1.652-.294 2.352-.756zm-4.634-3.682h3.43c-.112-1.106-.896-1.54-1.666-1.54-.812 0-1.582.518-1.764 1.54M46.283 15V8.084h1.68v.966l.028.014a2.42 2.42 0 0 1 2.016-1.05c.14 0 .294.014.448.056v1.624a2.2 2.2 0 0 0-.532-.07c-.84 0-1.47.35-1.946 1.022V15zm7.837.154c-.882 0-1.974-.182-2.744-.616V12.97c.868.56 1.988.798 2.772.798.77 0 1.26-.224 1.26-.714 0-.35-.21-.532-.798-.672s-1.666-.294-2.324-.602c-.672-.308-.994-.84-.994-1.638 0-1.456 1.19-2.212 2.856-2.212.854 0 1.862.196 2.548.546V9.96c-.84-.448-1.82-.658-2.52-.658-.714 0-1.19.21-1.19.686 0 .364.266.532.868.672.602.126 1.61.266 2.254.56.658.308.994.826.994 1.68 0 1.54-1.344 2.254-2.982 2.254m10.403-.63c-.644.392-1.638.63-2.534.63-2.24 0-3.822-1.4-3.822-3.598 0-2.226 1.596-3.626 3.5-3.626 1.722 0 3.234 1.134 3.234 3.402 0 .224-.014.518-.042.686h-4.984c.196 1.148 1.106 1.722 2.296 1.722.84 0 1.652-.294 2.352-.756zm-4.634-3.682h3.43c-.112-1.106-.896-1.54-1.666-1.54-.812 0-1.582.518-1.764 1.54" fill="#fff"/>
</svg>
