<?xml version="1.0" encoding="utf-8"?>
<svg xmlns="http://www.w3.org/2000/svg" width="183" height="29" viewBox="0 0 183 29" fill="none">
  <path d="M39.179 15.27c0-5.168 3.944-9.137 9.137-9.137s9.137 3.968 9.137 9.138-3.918 9.137-9.137 9.137-9.138-3.993-9.138-9.137m15.163 0c0-3.527-2.547-6.32-6.026-6.32s-6.026 2.792-6.026 6.32c0 3.53 2.572 6.322 6.026 6.322s6.026-2.793 6.026-6.321m13.13 8.058-.05-.024c-.832.662-1.984 1.102-3.331 1.102-3.062 0-5.683-2.352-5.683-6.125s2.645-6.517 6.295-6.517c1.054 0 1.91.27 2.67.588l.05-.024V5.42h2.963v18.715H67.47v-.81zm-.05-2.399v-5.978a5 5 0 0 0-2.425-.636c-2.303 0-3.6 1.74-3.6 3.87s1.274 3.723 3.43 3.723c1.054 0 1.91-.416 2.597-.979zM72.05 8.093c0-1.005.833-1.837 1.86-1.837s1.838.834 1.838 1.837a1.85 1.85 0 0 1-1.837 1.838c-1.006 0-1.862-.808-1.862-1.838m.367 3.945h2.963V24.14h-2.963zm4.97 0h2.94v1.2l.048.024a6.02 6.02 0 0 1 3.969-1.494q1.984 0 3.16 1.25c.759.833 1.053 1.91 1.053 3.527v7.594h-2.963v-7.225c0-.858-.122-1.494-.54-1.91-.415-.418-1.005-.614-1.665-.614-1.127 0-2.278.563-3.038 1.322v8.427h-2.964zm18.336 9.602c1.91 0 3.111-.81 3.111-2.352 0-.98-.466-1.593-1.64-2.107-1.178-.515-3.43-.931-4.925-1.74-1.518-.81-2.4-2.082-2.4-4.117 0-3.258 2.4-5.192 6.002-5.192 1.69 0 3.747.44 5.218 1.25v3.11c-1.74-1.126-3.773-1.617-5.168-1.617-1.765 0-2.94.76-2.94 2.18 0 1.054.563 1.618 1.74 2.108 1.201.49 3.503.882 4.999 1.765 1.494.857 2.229 2.253 2.229 4.092 0 3.38-2.474 5.39-6.15 5.39-1.837 0-4.066-.515-5.707-1.47v-3.208c1.837 1.346 4.165 1.91 5.635 1.91zm6.025-9.602h3.135l1.519 4.581c.417 1.25.783 2.45 1.126 3.626h.049c.367-1.177.809-2.425 1.225-3.626l1.642-4.58h2.156l1.641 4.58a68 68 0 0 1 1.201 3.626h.049c.343-1.201.71-2.352 1.126-3.602l1.494-4.605h2.964l-4.165 12.101h-2.816l-1.494-4.213a138 138 0 0 1-1.127-3.43h-.048a63 63 0 0 1-1.127 3.43l-1.494 4.213h-2.891zm29.638 12.322c-1.177 0-2.082-.416-2.572-1.201h-.024c-.81.662-2.082 1.225-3.626 1.225-2.401 0-4.214-1.298-4.214-3.626 0-2.572 1.985-3.749 4.997-3.749.735 0 1.593.075 2.377.196v-.735c0-1.494-1.006-2.156-2.916-2.156-1.421 0-2.645.416-3.454.882v-2.5c.882-.514 2.303-.93 4.042-.93 3.283 0 5.243 1.446 5.243 4.337v4.728c0 .587.269 1.078 1.054 1.078.268 0 .514-.073.734-.172v2.328c-.441.146-1.005.293-1.641.293zm-3.062-3.061v-2.157a13 13 0 0 0-1.936-.171c-1.373 0-2.524.392-2.524 1.593 0 1.078.882 1.544 2.009 1.544.931 0 1.886-.319 2.449-.808zm5.853-9.261h2.915v.784l.048.024a5.5 5.5 0 0 1 3.307-1.078c3.136 0 5.732 2.449 5.732 6.174 0 3.724-2.695 6.468-6.271 6.468a5.9 5.9 0 0 1-2.719-.638l-.05.024v5.732h-2.964V12.037zm5.414 9.872c2.278 0 3.602-1.64 3.602-3.821s-1.298-3.772-3.455-3.772c-1.053 0-1.96.416-2.596.955v5.954a4.8 4.8 0 0 0 2.449.686z" fill="#fff"/>
  <path d="M26.794 29.53a16.5 16.5 0 0 1-4.28-.569 16.5 16.5 0 0 1-5.557-2.677 16.3 16.3 0 0 1-3.614-3.718q-.425-.599-.803-1.258a17 17 0 0 1-.57-1.075 11.1 11.1 0 0 1 3.312-.989q.098.184.202.363.153.265.316.52c.231.362.492.728.774 1.084a12.8 12.8 0 0 0 4.093 3.401c.861.455 1.78.813 2.728 1.067a13.1 13.1 0 0 0 3.788.442c.441 1.073.71 2.204.802 3.368q-.594.044-1.19.044zm-20.002 0c-.486 0-.976-.021-1.46-.067A16.4 16.4 0 0 1 .497 28.26a16 16 0 0 1 .803-3.366 12.9 12.9 0 0 0 5.51 1.23 13.2 13.2 0 0 0 5.905-1.41 18 18 0 0 0 2.509 2.5 16.6 16.6 0 0 1-4.154 1.746 16.5 16.5 0 0 1-4.28.568zm22.98-.277a12.9 12.9 0 0 0-.854-3.649 13 13 0 0 0-.55-1.214 13.1 13.1 0 0 0-4.462-4.932c.416-1.105.722-2.253.912-3.422a16.6 16.6 0 0 1 6.885 7.435 16.2 16.2 0 0 1 1.384 4.791c-1.068.449-2.18.78-3.315.992zM5.308 24.219a11 11 0 0 1-3.31-.994 16.6 16.6 0 0 1 8.273-7.938 16 16 0 0 1 3.808-1.125c.395-.068.793-.12 1.222-.157a16 16 0 0 1 2.705-.023 11 11 0 0 1-.803 3.364 13 13 0 0 0-1.02.008c-.432.018-.88.061-1.328.13-1.346.2-2.647.611-3.864 1.221a13.1 13.1 0 0 0-5.683 5.513m15.089-1.878a11 11 0 0 1-2.51-2.378 13 13 0 0 0 1.053-2.106 12.9 12.9 0 0 0 .892-5.243 13.1 13.1 0 0 0-1.949-6.392A11 11 0 0 1 20.4 3.848a16.42 16.42 0 0 1 2.835 9.857 16.4 16.4 0 0 1-1.026 5.146c-.14.374-.296.745-.477 1.135a16 16 0 0 1-1.334 2.353zM10.33 13.317a16.6 16.6 0 0 1 .567-4.476 16.4 16.4 0 0 1 3.18-6.196A16.3 16.3 0 0 1 16.793.034c.918.7 1.761 1.499 2.514 2.378a12.8 12.8 0 0 0-3.51 3.645 13 13 0 0 0-1.613 3.662 13.2 13.2 0 0 0-.428 2.667 18 18 0 0 0-3.423.93z" fill="url(#a)"/>
  <rect x="152" y="8.21" width="30.4" height="16.2" rx="3.2" fill="url(#b)"/>
  <path d="M156.089 19.81v-6.95h2.323c.71 0 1.238.095 1.67.402.442.308.739.797.739 1.44 0 .663-.345 1.19-.912 1.45v.02c.759.24 1.181.834 1.181 1.622 0 .69-.307 1.21-.777 1.555-.48.336-1.037.46-1.776.46zm2.38-1.056c.452 0 .73-.058.98-.212.249-.163.422-.432.422-.816 0-.643-.499-1.008-1.171-1.008h-1.402v2.036zm-1.171-2.967h1.248c.615 0 1.056-.355 1.056-.93 0-.356-.153-.596-.374-.75-.231-.153-.48-.201-.903-.201h-1.027zm4.903 4.023v-6.95h4.147v1.075h-2.928v1.756h2.544v1.047h-2.544v1.987h3.024v1.085zm7.091 0v-5.875h-2.285v-1.076h5.799v1.076h-2.295v5.875zm2.831 0 2.813-6.95h1.238l2.813 6.95h-1.306l-.672-1.7h-2.966l-.672 1.7zm2.313-2.698h2.189l-.365-.96c-.23-.614-.508-1.382-.7-1.93h-.02a67 67 0 0 1-.729 1.94z" fill="#000"/>
  <defs>
    <linearGradient id="a" x1="5.609" y1="33.372" x2="27.972" y2="11.009" gradientUnits="userSpaceOnUse">
      <stop stop-color="#F96164"/>
      <stop offset="1" stop-color="#FFBF18"/>
    </linearGradient>
    <linearGradient id="b" x1="182.4" y1="8.21" x2="168.953" y2="33.444" gradientUnits="userSpaceOnUse">
      <stop stop-color="#FFBF18"/>
      <stop offset="1" stop-color="#F96164"/>
    </linearGradient>
  </defs>
</svg>